<?xml version="1.0" encoding="UTF-8" standalone="no"?>
<!-- Created with Sodipodi ("http://www.sodipodi.com/") -->
<svg
   xmlns:dc="http://purl.org/dc/elements/1.1/"
   xmlns:cc="http://creativecommons.org/ns#"
   xmlns:rdf="http://www.w3.org/1999/02/22-rdf-syntax-ns#"
   xmlns:svg="http://www.w3.org/2000/svg"
   xmlns="http://www.w3.org/2000/svg"
   xmlns:xlink="http://www.w3.org/1999/xlink"
   xmlns:sodipodi="http://sodipodi.sourceforge.net/DTD/sodipodi-0.dtd"
   xmlns:inkscape="http://www.inkscape.org/namespaces/inkscape"
   width="48pt"
   height="48pt"
   viewBox="0 0 64 64"
   overflow="visible"
   enable-background="new 0 0 64 64"
   xml:space="preserve"
   id="svg153"
   sodipodi:version="0.32"
   sodipodi:docname="theseus-ohno.svg"
   sodipodi:docbase="/home/cschalle/Themes/gnome-themes-extras/Nuvola/icons/scalable/emblems/"
   inkscape:version="0.46"
   inkscape:output_extension="org.inkscape.output.svg.inkscape"><metadata
     id="metadata2633"><rdf:RDF><cc:Work
         rdf:about=""><dc:format>image/svg+xml</dc:format><dc:type
           rdf:resource="http://purl.org/dc/dcmitype/StillImage" /></cc:Work></rdf:RDF></metadata><defs
     id="defs177"><inkscape:perspective
       sodipodi:type="inkscape:persp3d"
       inkscape:vp_x="0 : 30 : 1"
       inkscape:vp_y="0 : 1000 : 0"
       inkscape:vp_z="60 : 30 : 1"
       inkscape:persp3d-origin="30 : 20 : 1"
       id="perspective2635" /><radialGradient
       gradientUnits="userSpaceOnUse"
       gradientTransform="matrix(0.1584,0,0,0.1584,48.0479,-72.1631)"
       fy="548.6611"
       fx="-224.77"
       r="408.8083"
       cy="548.6611"
       cx="-224.77"
       id="XMLID_1_"><stop
         id="stop157"
         style="stop-color:#FFFF99"
         offset="0.0056" /><stop
         id="stop158"
         style="stop-color:#FFF27C"
         offset="0.5843" /><stop
         id="stop159"
         style="stop-color:#FFCC00"
         offset="1" /></radialGradient><linearGradient
       gradientTransform="matrix(0.1584,0,0,0.1584,48.0479,-72.1631)"
       y2="624.2625"
       x2="-103.5713"
       y1="484.0488"
       x1="-103.5713"
       gradientUnits="userSpaceOnUse"
       id="XMLID_2_"><stop
         id="stop167"
         style="stop-color:#FFFFFF"
         offset="0.0056" /><stop
         id="stop168"
         style="stop-color:#FFFF99"
         offset="1" /></linearGradient><linearGradient
       inkscape:collect="always"
       xlink:href="#XMLID_2_"
       id="linearGradient3435"
       gradientUnits="userSpaceOnUse"
       gradientTransform="matrix(0.1584,0,0,0.1584,48.0479,-72.1631)"
       x1="-103.5713"
       y1="484.0488"
       x2="-103.5713"
       y2="624.2625" /><radialGradient
       inkscape:collect="always"
       xlink:href="#XMLID_1_"
       id="radialGradient3438"
       gradientUnits="userSpaceOnUse"
       gradientTransform="matrix(0.1584,0,0,0.1584,48.0479,-72.1631)"
       cx="-224.77"
       cy="548.6611"
       fx="-224.77"
       fy="548.6611"
       r="408.8083" /><linearGradient
       inkscape:collect="always"
       xlink:href="#XMLID_2_"
       id="linearGradient4069"
       gradientUnits="userSpaceOnUse"
       gradientTransform="matrix(0.1584,0,0,0.1584,48.0479,-72.1631)"
       x1="-103.5713"
       y1="484.0488"
       x2="-103.5713"
       y2="624.2625" /><radialGradient
       inkscape:collect="always"
       xlink:href="#XMLID_1_"
       id="radialGradient4072"
       gradientUnits="userSpaceOnUse"
       gradientTransform="matrix(0.1584,0,0,0.1584,48.0479,-72.1631)"
       cx="-224.77"
       cy="548.6611"
       fx="-224.77"
       fy="548.6611"
       r="408.8083" /></defs><sodipodi:namedview
     id="base"
     showgrid="false"
     inkscape:zoom="7.7"
     inkscape:cx="30"
     inkscape:cy="28.955261"
     inkscape:window-width="892"
     inkscape:window-height="776"
     inkscape:window-x="909"
     inkscape:window-y="122"
     inkscape:current-layer="svg153" /><g
     id="g4584"><path
       d="M 31.965,1.854 C 15.139,1.854 1.445,15.549 1.445,32.379 C 1.445,49.21 15.139,62.904 31.965,62.904 C 48.801,62.904 62.494,49.21 62.494,32.379 C 62.494,15.549 48.801,1.854 31.965,1.854 z"
       id="path155"
       style="fill:#3c3000;fill-opacity:1;stroke:none" /><path
       d="M 3.438,32.378 C 3.438,48.133 16.214,60.906 31.965,60.906 C 47.725,60.906 60.498,48.134 60.498,32.378 C 60.498,16.624 47.725,3.853 31.965,3.853 C 16.214,3.854 3.438,16.624 3.438,32.378 z"
       id="path165"
       style="fill:url(#radialGradient4072);stroke:none" /><path
       d="M 8.737,19.147 C 14.228,21.646 21.939,23.201 30.481,23.201 C 40.313,23.201 49.047,21.14 54.557,17.953 C 50.063,10.126 41.621,4.85 31.965,4.85 C 21.835,4.85 13.031,10.671 8.737,19.147 z"
       id="path172"
       style="fill:url(#linearGradient4069);stroke:none" /><path
       d="M 64,64 L 0,64 L 0,0 L 64,0 L 64,64 z"
       id="path173"
       style="fill:none;stroke:none" /><path
       d="M 31.969,39.121 C 23.572,39.121 15.098,41.485 15.098,46.767 C 15.098,52.049 23.571,54.413 31.969,54.413 C 40.367,54.413 48.84,52.049 48.84,46.767 C 48.84,41.485 40.367,39.121 31.969,39.121 z"
       id="path174"
       style="opacity:0.75;stroke:none" /><path
       d="M 19.469,17.976 C 17.139,17.976 15.382,20.899 15.382,24.774 C 15.382,28.649 17.139,31.572 19.469,31.572 C 21.799,31.572 23.556,28.65 23.556,24.774 C 23.556,20.898 21.799,17.976 19.469,17.976 z M 44.469,17.976 C 42.139,17.976 40.381,20.899 40.381,24.774 C 40.381,28.649 42.139,31.572 44.469,31.572 C 46.799,31.572 48.557,28.65 48.557,24.774 C 48.557,20.898 46.799,17.976 44.469,17.976 z"
       id="path175"
       style="opacity:0.75;stroke:none" /></g></svg>